<?xml version="1.0" encoding="UTF-8"?>
<svg xmlns="http://www.w3.org/2000/svg" viewBox="0 0 796.36 992.13">
  <defs>
    <style>
      .cls-1 {
        fill: #231f20;
      }

      .cls-2 {
        fill: #e21d31;
      }

      .cls-3 {
        fill: #2177bb;
      }

      .cls-4 {
        fill: #fff;
      }

      .cls-5 {
        fill: #fdb730;
      }

      .cls-6 {
        fill: #f2b82a;
      }
    </style>
  </defs>
  <g>
    <ellipse class="cls-5" cx="398.18" cy="467.19" rx="308.81" ry="296.22"/>
    <ellipse class="cls-4" cx="397.31" cy="467.19" rx="290.59" ry="277.6"/>
    <ellipse class="cls-3" cx="397.31" cy="467.19" rx="269.77" ry="257.29"/>
    <ellipse class="cls-2" cx="398.18" cy="467.18" rx="249.82" ry="238.67"/>
    <ellipse class="cls-6" cx="397.31" cy="467.19" rx="228.14" ry="218.36"/>
    <rect class="cls-6" x="240.31" y="603.24" width="314.01" height="260.04"/>
    <rect class="cls-4" x="240.31" y="94.79" width="314.03" height="650"/>
    <path class="cls-6" d="M601.16,143.51l-140.39-19.68-73.5,28.66-13.91,40.64s59.16-13.26,73.28.86c18.54,18.61,1.99,77.64-39.95,122.34l116.77,59.46-24.06-135.81,101.76-96.46ZM420.16,218.79c-9.49-9.62-81.67,3.85-81.67,3.85l30.9-90.68,83.88-22.24L397.42,0l-63.13,123.62-140.83,19.89,101.98,96.24-24.06,135.81,114.12-58.17c25.61-37.43,45.91-87.48,34.66-98.6Z"/>
    <path d="M343.32,484.11c-3.38,19.49-17.58,30.05-35.72,30.05-10.41,0-19.41-3.71-26.3-10.43-9.85-9.61-9.7-20.45-9.7-39.25s-.14-29.64,9.7-39.25c6.89-6.72,15.89-10.43,26.3-10.43,18.43,0,32.21,10.57,35.72,30.05h-15.47c-2.39-9.88-9.14-16.74-20.25-16.74-5.91,0-11.25,2.2-14.77,5.9-4.92,5.21-6.05,10.84-6.05,30.47s1.13,25.25,6.05,30.47c3.52,3.71,8.86,5.9,14.77,5.9,11.11,0,18-6.86,20.39-16.74h15.33Z"/>
    <path d="M408.6,481.09l-15.19-43.36-15.61,43.36h30.8ZM435.89,513.34h-16.17l-6.89-19.62h-39.52l-6.89,19.62h-16.17l36.71-97.71h12.24l36.71,97.71Z"/>
    <path d="M504.81,444.31c0-9.61-6.89-15.37-17.02-15.37h-22.5v30.6h22.5c10.13,0,17.02-5.63,17.02-15.23ZM523.09,513.34h-17.72l-21.1-41.17h-18.99v41.17h-15.19v-97.71h38.82c18.99,0,31.08,11.94,31.08,28.54,0,14-8.72,22.92-19.97,25.94l23.07,43.23Z"/>
    <path d="M303.26,558.58c0-10.96-.55-14.02-3.3-16.93-1.96-2.07-5.03-3.37-8.32-3.37s-6.36,1.3-8.32,3.37c-2.75,2.91-3.3,5.98-3.3,16.93s.55,14.02,3.3,16.93c1.96,2.07,5.03,3.37,8.32,3.37s6.36-1.3,8.32-3.37c2.75-2.91,3.3-5.98,3.3-16.93ZM311.74,558.58c0,10.5.16,16.55-5.34,21.91-3.85,3.75-8.79,5.82-14.76,5.82s-10.84-2.07-14.68-5.82c-5.5-5.36-5.42-11.42-5.42-21.91s-.08-16.55,5.42-21.91c3.85-3.75,8.72-5.82,14.68-5.82s10.91,2.07,14.76,5.82c5.5,5.36,5.34,11.42,5.34,21.91Z"/>
    <polygon points="360.07 538.74 332.82 538.74 332.82 555.36 356.06 555.36 356.06 562.79 332.82 562.79 332.82 585.85 324.34 585.85 324.34 531.31 360.07 531.31 360.07 538.74"/>
    <polygon points="423.45 538.74 408.06 538.74 408.06 585.85 399.58 585.85 399.58 538.74 384.19 538.74 384.19 531.31 423.45 531.31 423.45 538.74"/>
    <polygon points="472.73 585.85 464.25 585.85 464.25 562.03 441.55 562.03 441.55 585.85 433.07 585.85 433.07 531.31 441.55 531.31 441.55 554.6 464.25 554.6 464.25 531.31 472.73 531.31 472.73 585.85"/>
    <polygon points="523.09 585.85 487.36 585.85 487.36 531.31 523.09 531.31 523.09 538.74 495.84 538.74 495.84 554.67 519.09 554.67 519.09 562.03 495.84 562.03 495.84 578.42 523.09 578.42 523.09 585.85"/>
    <polygon points="328.01 603.24 305.48 646.48 305.48 676.71 294.06 676.71 294.06 646.48 271.53 603.24 284.01 603.24 299.77 635.54 315.53 603.24 328.01 603.24"/>
    <polygon points="386.49 676.71 338.37 676.71 338.37 603.24 386.49 603.24 386.49 613.25 349.79 613.25 349.79 634.72 381.1 634.72 381.1 644.62 349.79 644.62 349.79 666.71 386.49 666.71 386.49 676.71"/>
    <path d="M437,652.46l-11.42-32.61-11.74,32.61h23.16ZM457.52,676.71h-12.16l-5.18-14.76h-29.72l-5.18,14.76h-12.16l27.6-73.47h9.2l27.6,73.47Z"/>
    <path d="M509.34,624.81c0-7.22-5.18-11.56-12.8-11.56h-16.92v23.01h16.92c7.61,0,12.8-4.23,12.8-11.45ZM523.09,676.71h-13.33l-15.86-30.96h-14.28v30.96h-11.42v-73.47h29.19c14.28,0,23.37,8.98,23.37,21.46,0,10.53-6.56,17.23-15.02,19.5l17.35,32.51Z"/>
    <g>
      <path d="M327.27,843.89h-49.38v-9.47l28.06-32.12c5.33-6.01,8.29-11.21,8.29-16.75,0-7.28-5.56-10.97-11.6-10.97-6.39,0-11.25,3.81-11.6,10.97h-12.55c0-13.52,11.13-22.41,24.63-22.41s24.75,9.24,24.75,22.64c0,10.05-7.11,17.91-12.31,24.03l-19.3,22.53h31.02v11.55Z"/>
      <path d="M365.28,844.93c-13.62,0-25.69-7.86-25.69-24.38v-32.92c0-16.98,12.08-24.49,25.69-24.49s25.69,7.51,25.69,24.38v33.04c0,16.52-12.08,24.38-25.69,24.38ZM365.28,774.8c-7.46,0-12.08,4.97-12.08,13.52v31.42c0,8.55,4.62,13.52,12.08,13.52s11.96-4.97,11.96-13.52v-31.42c0-8.55-4.62-13.52-11.96-13.52Z"/>
      <path d="M450.89,843.89h-49.38v-9.47l28.06-32.12c5.33-6.01,8.29-11.21,8.29-16.75,0-7.28-5.56-10.97-11.6-10.97-6.39,0-11.25,3.81-11.6,10.97h-12.55c0-13.52,11.13-22.41,24.63-22.41s24.75,9.24,24.75,22.64c0,10.05-7.11,17.91-12.31,24.03l-19.3,22.53h31.02v11.55Z"/>
      <path d="M502.52,764.18l-26.17,56.03h19.18v-21.72h13.73v21.72h7.46v11.67h-7.46v12.01h-13.73v-12.01h-35.88v-9.47l28.3-58.23h14.56Z"/>
    </g>
  </g>
  <g>
    <rect class="cls-4" y="863.28" width="796.36" height="128.85"/>
    <g>
      <path class="cls-1" d="M88.13,954.7l-5.78-16.07h-22.12l-5.66,16.07h-9.97l21.64-58.09h10.29l21.64,58.09h-10.05ZM79.86,930.48l-5.42-15.75c-.4-1.06-.94-2.72-1.64-4.99-.7-2.27-1.18-3.93-1.44-4.99-.71,3.24-1.75,6.79-3.13,10.64l-5.22,15.08h16.86Z"/>
      <path class="cls-1" d="M142.82,922.13c0,5.17-3.02,8.3-9.06,9.38v.32c3.38.4,5.96,1.46,7.76,3.21,1.79,1.74,2.69,4,2.69,6.77,0,4.14-1.58,7.33-4.73,9.56-3.15,2.23-7.74,3.34-13.75,3.34h-20.89v-43.76h20.81c11.45,0,17.17,3.73,17.17,11.2ZM133.52,922.93c0-1.74-.68-3-2.04-3.78-1.36-.78-3.38-1.17-6.07-1.17h-11.28v10.53h9.89c3.11,0,5.47-.4,7.08-1.21,1.61-.8,2.41-2.26,2.41-4.37ZM134.67,941.25c0-2.11-.82-3.61-2.45-4.49-1.64-.88-4.09-1.33-7.36-1.33h-10.72v12.39h10.96c6.38,0,9.58-2.19,9.58-6.57Z"/>
      <path class="cls-1" d="M186.66,910.94v7.28h-14.25v36.48h-9.34v-36.48h-14.25v-7.28h37.83Z"/>
      <path class="cls-1" d="M233.91,932.74c0,7.15-1.83,12.73-5.5,16.74-3.67,4.01-8.77,6.01-15.31,6.01-4.09,0-7.7-.92-10.84-2.77-3.14-1.85-5.55-4.5-7.24-7.95-1.69-3.46-2.53-7.47-2.53-12.03,0-7.1,1.82-12.64,5.46-16.62,3.64-3.98,8.77-5.98,15.39-5.98s11.34,2.04,15.04,6.11c3.69,4.08,5.54,9.57,5.54,16.48ZM202.05,932.74c0,10.1,3.73,15.16,11.2,15.16s11.08-5.05,11.08-15.16-3.72-15-11.16-15c-3.9,0-6.73,1.29-8.49,3.88-1.75,2.59-2.63,6.29-2.63,11.12Z"/>
      <path class="cls-1" d="M269.72,945.8l.51-1.9c1.08-3.93,2.02-6.95,2.81-9.06l9.81-23.9h12.39v43.76h-8.59v-35.34l-.71,2.37c-1.19,4.25-2.19,7.37-3.01,9.38l-9.58,23.58h-7.04l-9.58-23.74c-1.32-3.43-2.53-7.29-3.64-11.59v35.34h-8.51v-43.76h12.31l9.5,23.19c.84,2.14,1.95,6.03,3.32,11.67Z"/>
      <path class="cls-1" d="M347.35,932.74c0,7.15-1.83,12.73-5.5,16.74-3.67,4.01-8.77,6.01-15.31,6.01-4.09,0-7.7-.92-10.84-2.77-3.14-1.85-5.55-4.5-7.24-7.95-1.69-3.46-2.53-7.47-2.53-12.03,0-7.1,1.82-12.64,5.46-16.62,3.64-3.98,8.77-5.98,15.39-5.98s11.34,2.04,15.04,6.11c3.69,4.08,5.54,9.57,5.54,16.48ZM315.5,932.74c0,10.1,3.73,15.16,11.2,15.16s11.08-5.05,11.08-15.16-3.72-15-11.16-15c-3.9,0-6.73,1.29-8.49,3.88-1.75,2.59-2.63,6.29-2.63,11.12Z"/>
      <path class="cls-1" d="M355.5,928.43c0-9.76,1.66-17.27,4.97-22.52,3.31-5.25,8.58-8.63,15.81-10.13,5.46-1.11,11.75-2.19,18.87-3.24l1.31,8.19c-8.65,1.32-14.98,2.35-18.99,3.09-4.14.77-7.13,2.47-8.96,5.1-1.83,2.64-2.9,6.61-3.19,11.91h.59c1.5-2.19,3.47-3.88,5.9-5.08,2.43-1.2,5.03-1.8,7.8-1.8,5.38,0,9.58,1.7,12.58,5.1,3.01,3.4,4.51,8.18,4.51,14.32,0,7.04-1.83,12.49-5.48,16.34-3.65,3.85-8.71,5.78-15.17,5.78s-11.44-2.37-15.08-7.12-5.46-11.4-5.46-19.94ZM376.67,947.89c6.91,0,10.37-4.54,10.37-13.61s-3.13-13.14-9.38-13.14c-1.72,0-3.38.37-4.99,1.11-1.61.74-3.09,1.71-4.45,2.93-1.36,1.21-2.41,2.47-3.15,3.76,0,6.23.99,10.94,2.97,14.15,1.98,3.21,4.85,4.81,8.63,4.81Z"/>
      <path class="cls-1" d="M416.28,910.94v22.44c0,2.61-.21,6.45-.63,11.51l21.96-33.95h11.36v43.76h-8.94v-22.04c0-1.21.07-3.18.22-5.9.14-2.72.27-4.7.38-5.94l-21.88,33.87h-11.36v-43.76h8.9Z"/>
      <path class="cls-1" d="M498.19,954.7h-9.38v-36.48h-12.07c-.74,9.39-1.74,16.72-2.99,22-1.25,5.28-2.89,9.13-4.91,11.55s-4.64,3.64-7.85,3.64c-2.03,0-3.73-.29-5.1-.87v-7.28c.98.37,1.95.55,2.93.55,2.69,0,4.81-3.03,6.35-9.08,1.54-6.05,2.75-15.32,3.62-27.8h29.4v43.76Z"/>
      <path class="cls-1" d="M520.79,928.43h10.96c12.21,0,18.32,4.22,18.32,12.66,0,4.46-1.56,7.84-4.67,10.15-3.11,2.31-7.66,3.46-13.65,3.46h-20.26v-43.76h9.3v17.49ZM540.73,941.33c0-2.19-.83-3.72-2.49-4.59s-4.01-1.31-7.04-1.31h-10.41v12.39h10.57c3.06,0,5.39-.55,6.98-1.66s2.4-2.72,2.4-4.83Z"/>
      <path class="cls-1" d="M609.7,910.94v7.28h-18.99v36.48h-9.3v-43.76h28.29Z"/>
      <path class="cls-1" d="M656.95,932.74c0,7.15-1.83,12.73-5.5,16.74-3.67,4.01-8.77,6.01-15.31,6.01-4.09,0-7.7-.92-10.84-2.77s-5.55-4.5-7.24-7.95-2.53-7.47-2.53-12.03c0-7.1,1.82-12.64,5.46-16.62,3.64-3.98,8.77-5.98,15.39-5.98s11.34,2.04,15.04,6.11,5.54,9.57,5.54,16.48ZM625.09,932.74c0,10.1,3.73,15.16,11.2,15.16s11.08-5.05,11.08-15.16-3.72-15-11.16-15c-3.9,0-6.73,1.29-8.49,3.88s-2.63,6.29-2.63,11.12Z"/>
      <path class="cls-1" d="M709.61,970.17h-8.67v-15.47h-29.99v15.47h-8.59v-22.67h3.56c3.11-4.46,5.59-9.85,7.42-16.16s2.92-13.12,3.26-20.4h26.59v36.56h6.41v22.67ZM694.06,947.5v-29.44h-9.42c-.5,5.43-1.55,10.79-3.15,16.07-1.6,5.28-3.54,9.73-5.84,13.37h18.4Z"/>
      <path class="cls-1" d="M745.11,954.7l-1.86-6.09h-.32c-2.11,2.66-4.23,4.48-6.37,5.44s-4.88,1.44-8.23,1.44c-4.3,0-7.66-1.16-10.07-3.48s-3.62-5.61-3.62-9.85c0-4.51,1.68-7.91,5.03-10.21,3.35-2.3,8.45-3.55,15.31-3.76l7.56-.24v-2.33c0-2.8-.65-4.89-1.96-6.27s-3.33-2.08-6.07-2.08c-2.24,0-4.39.33-6.45.99s-4.04,1.44-5.94,2.33l-3.01-6.65c2.37-1.24,4.97-2.18,7.8-2.83s5.49-.97,7.99-.97c5.57,0,9.77,1.21,12.6,3.64s4.25,6.24,4.25,11.44v29.48h-6.65ZM731.26,948.37c3.38,0,6.09-.94,8.13-2.83s3.07-4.53,3.07-7.93v-3.8l-5.62.24c-4.38.16-7.56.89-9.56,2.2s-2.99,3.3-2.99,5.99c0,1.95.58,3.46,1.74,4.53s2.9,1.6,5.22,1.6Z"/>
    </g>
  </g>
</svg>